<?xml version="1.0" encoding="utf-8" standalone="no"?>
<!DOCTYPE svg PUBLIC "-//W3C//DTD SVG 1.1//EN"
  "http://www.w3.org/Graphics/SVG/1.1/DTD/svg11.dtd">
<svg xmlns:xlink="http://www.w3.org/1999/xlink" width="449.746484pt" height="226.924102pt" viewBox="0 0 449.746484 226.924102" xmlns="http://www.w3.org/2000/svg" version="1.1">
 <metadata>
  <rdf:RDF xmlns:dc="http://purl.org/dc/elements/1.1/" xmlns:cc="http://creativecommons.org/ns#" xmlns:rdf="http://www.w3.org/1999/02/22-rdf-syntax-ns#">
   <cc:Work>
    <dc:type rdf:resource="http://purl.org/dc/dcmitype/StillImage"/>
    <dc:date>2026-10-03T12:51:49.515011</dc:date>
    <dc:format>image/svg+xml</dc:format>
    <dc:creator>
     <cc:Agent>
      <dc:title>Matplotlib v3.11.2, https://matplotlib.org/</dc:title>
     </cc:Agent>
    </dc:creator>
   </cc:Work>
  </rdf:RDF>
 </metadata>
 <defs>
  <style type="text/css">*{stroke-linejoin: round; stroke-linecap: butt}</style>
 </defs>
 <g id="figure_1">
  <g id="patch_1">
   <path d="M 0 226.924102 
L 449.746484 226.924102 
L 449.746484 0 
L 0 0 
z
" style="fill: #fcfcfb"/>
  </g>
  <g id="axes_1">
   <g id="patch_2">
    <path d="M 40.786484 194.72 
L 223.404666 194.72 
L 223.404666 39.488 
L 40.786484 39.488 
z
" style="fill: #fcfcfb"/>
   </g>
   <g id="matplotlib.axis_1">
    <g id="xtick_1">
     <g id="line2d_1">
      <defs>
       <path id="md500cd0beb" d="M 0 0 
L 0 3.5 
" style="stroke: #52514e; stroke-width: 0.8"/>
      </defs>
      <g>
       <use xlink:href="#md500cd0beb" x="62.922022" y="194.72" style="fill: #52514e; stroke: #52514e; stroke-width: 0.8"/>
      </g>
     </g>
     <g id="text_1">
      <!-- Gemini -->
      <g style="fill: #52514e" transform="translate(49.596045 208.169561) scale(0.075 -0.075)">
       <defs>
        <path id="DejaVuSans-2a" d="M 3809 666 
L 3809 1919 
L 2778 1919 
L 2778 2438 
L 4434 2438 
L 4434 434 
Q 4069 175 3628 42 
Q 3188 -91 2688 -91 
Q 1594 -91 976 548 
Q 359 1188 359 2328 
Q 359 3472 976 4111 
Q 1594 4750 2688 4750 
Q 3144 4750 3555 4637 
Q 3966 4525 4313 4306 
L 4313 3634 
Q 3963 3931 3569 4081 
Q 3175 4231 2741 4231 
Q 1884 4231 1454 3753 
Q 1025 3275 1025 2328 
Q 1025 1384 1454 906 
Q 1884 428 2741 428 
Q 3075 428 3337 486 
Q 3600 544 3809 666 
z
" transform="scale(0.015625)"/>
        <path id="DejaVuSans-48" d="M 3597 1894 
L 3597 1613 
L 953 1613 
Q 991 1019 1311 708 
Q 1631 397 2203 397 
Q 2534 397 2845 478 
Q 3156 559 3463 722 
L 3463 178 
Q 3153 47 2828 -22 
Q 2503 -91 2169 -91 
Q 1331 -91 842 396 
Q 353 884 353 1716 
Q 353 2575 817 3079 
Q 1281 3584 2069 3584 
Q 2775 3584 3186 3129 
Q 3597 2675 3597 1894 
z
M 3022 2063 
Q 3016 2534 2758 2815 
Q 2500 3097 2075 3097 
Q 1594 3097 1305 2825 
Q 1016 2553 972 2059 
L 3022 2063 
z
" transform="scale(0.015625)"/>
        <path id="DejaVuSans-50" d="M 3328 2828 
Q 3544 3216 3844 3400 
Q 4144 3584 4550 3584 
Q 5097 3584 5394 3201 
Q 5691 2819 5691 2113 
L 5691 0 
L 5113 0 
L 5113 2094 
Q 5113 2597 4934 2840 
Q 4756 3084 4391 3084 
Q 3944 3084 3684 2787 
Q 3425 2491 3425 1978 
L 3425 0 
L 2847 0 
L 2847 2094 
Q 2847 2600 2669 2842 
Q 2491 3084 2119 3084 
Q 1678 3084 1418 2786 
Q 1159 2488 1159 1978 
L 1159 0 
L 581 0 
L 581 3500 
L 1159 3500 
L 1159 2956 
Q 1356 3278 1631 3431 
Q 1906 3584 2284 3584 
Q 2666 3584 2933 3390 
Q 3200 3197 3328 2828 
z
" transform="scale(0.015625)"/>
        <path id="DejaVuSans-4c" d="M 603 3500 
L 1178 3500 
L 1178 0 
L 603 0 
L 603 3500 
z
M 603 4863 
L 1178 4863 
L 1178 4134 
L 603 4134 
L 603 4863 
z
" transform="scale(0.015625)"/>
        <path id="DejaVuSans-51" d="M 3513 2113 
L 3513 0 
L 2938 0 
L 2938 2094 
Q 2938 2591 2744 2837 
Q 2550 3084 2163 3084 
Q 1697 3084 1428 2787 
Q 1159 2491 1159 1978 
L 1159 0 
L 581 0 
L 581 3500 
L 1159 3500 
L 1159 2956 
Q 1366 3272 1645 3428 
Q 1925 3584 2291 3584 
Q 2894 3584 3203 3211 
Q 3513 2838 3513 2113 
z
" transform="scale(0.015625)"/>
       </defs>
       <use xlink:href="#DejaVuSans-2a"/>
       <use xlink:href="#DejaVuSans-48" transform="translate(77.484375 0)"/>
       <use xlink:href="#DejaVuSans-50" transform="translate(139.015625 0)"/>
       <use xlink:href="#DejaVuSans-4c" transform="translate(236.421875 0)"/>
       <use xlink:href="#DejaVuSans-51" transform="translate(264.203125 0)"/>
       <use xlink:href="#DejaVuSans-4c" transform="translate(327.578125 0)"/>
      </g>
      <!-- ambig. -->
      <g style="fill: #52514e" transform="translate(49.976318 217.171611) scale(0.075 -0.075)">
       <defs>
        <path id="DejaVuSans-44" d="M 2194 1759 
Q 1497 1759 1228 1600 
Q 959 1441 959 1056 
Q 959 750 1161 570 
Q 1363 391 1709 391 
Q 2188 391 2477 730 
Q 2766 1069 2766 1631 
L 2766 1759 
L 2194 1759 
z
M 3341 1997 
L 3341 0 
L 2766 0 
L 2766 531 
Q 2569 213 2275 61 
Q 1981 -91 1556 -91 
Q 1019 -91 701 211 
Q 384 513 384 1019 
Q 384 1609 779 1909 
Q 1175 2209 1959 2209 
L 2766 2209 
L 2766 2266 
Q 2766 2663 2505 2880 
Q 2244 3097 1772 3097 
Q 1472 3097 1187 3025 
Q 903 2953 641 2809 
L 641 3341 
Q 956 3463 1253 3523 
Q 1550 3584 1831 3584 
Q 2591 3584 2966 3190 
Q 3341 2797 3341 1997 
z
" transform="scale(0.015625)"/>
        <path id="DejaVuSans-45" d="M 3116 1747 
Q 3116 2381 2855 2742 
Q 2594 3103 2138 3103 
Q 1681 3103 1420 2742 
Q 1159 2381 1159 1747 
Q 1159 1113 1420 752 
Q 1681 391 2138 391 
Q 2594 391 2855 752 
Q 3116 1113 3116 1747 
z
M 1159 2969 
Q 1341 3281 1617 3432 
Q 1894 3584 2278 3584 
Q 2916 3584 3314 3078 
Q 3713 2572 3713 1747 
Q 3713 922 3314 415 
Q 2916 -91 2278 -91 
Q 1894 -91 1617 61 
Q 1341 213 1159 525 
L 1159 0 
L 581 0 
L 581 4863 
L 1159 4863 
L 1159 2969 
z
" transform="scale(0.015625)"/>
        <path id="DejaVuSans-4a" d="M 2906 1791 
Q 2906 2416 2648 2759 
Q 2391 3103 1925 3103 
Q 1463 3103 1205 2759 
Q 947 2416 947 1791 
Q 947 1169 1205 825 
Q 1463 481 1925 481 
Q 2391 481 2648 825 
Q 2906 1169 2906 1791 
z
M 3481 434 
Q 3481 -459 3084 -895 
Q 2688 -1331 1869 -1331 
Q 1566 -1331 1297 -1286 
Q 1028 -1241 775 -1147 
L 775 -588 
Q 1028 -725 1275 -790 
Q 1522 -856 1778 -856 
Q 2344 -856 2625 -561 
Q 2906 -266 2906 331 
L 2906 616 
Q 2728 306 2450 153 
Q 2172 0 1784 0 
Q 1141 0 747 490 
Q 353 981 353 1791 
Q 353 2603 747 3093 
Q 1141 3584 1784 3584 
Q 2172 3584 2450 3431 
Q 2728 3278 2906 2969 
L 2906 3500 
L 3481 3500 
L 3481 434 
z
" transform="scale(0.015625)"/>
        <path id="DejaVuSans-11" d="M 684 794 
L 1344 794 
L 1344 0 
L 684 0 
L 684 794 
z
" transform="scale(0.015625)"/>
       </defs>
       <use xlink:href="#DejaVuSans-44"/>
       <use xlink:href="#DejaVuSans-50" transform="translate(61.28125 0)"/>
       <use xlink:href="#DejaVuSans-45" transform="translate(158.6875 0)"/>
       <use xlink:href="#DejaVuSans-4c" transform="translate(222.171875 0)"/>
       <use xlink:href="#DejaVuSans-4a" transform="translate(249.953125 0)"/>
       <use xlink:href="#DejaVuSans-11" transform="translate(313.4375 0)"/>
      </g>
     </g>
    </g>
    <g id="xtick_2">
     <g id="line2d_2">
      <g>
       <use xlink:href="#md500cd0beb" x="109.037724" y="194.72" style="fill: #52514e; stroke: #52514e; stroke-width: 0.8"/>
      </g>
     </g>
     <g id="text_2">
      <!-- Gemini -->
      <g style="fill: #52514e" transform="translate(95.711747 208.169561) scale(0.075 -0.075)">
       <use xlink:href="#DejaVuSans-2a"/>
       <use xlink:href="#DejaVuSans-48" transform="translate(77.484375 0)"/>
       <use xlink:href="#DejaVuSans-50" transform="translate(139.015625 0)"/>
       <use xlink:href="#DejaVuSans-4c" transform="translate(236.421875 0)"/>
       <use xlink:href="#DejaVuSans-51" transform="translate(264.203125 0)"/>
       <use xlink:href="#DejaVuSans-4c" transform="translate(327.578125 0)"/>
      </g>
      <!-- explicit -->
      <g style="fill: #52514e" transform="translate(95.53831 217.171611) scale(0.075 -0.075)">
       <defs>
        <path id="DejaVuSans-5b" d="M 3513 3500 
L 2247 1797 
L 3578 0 
L 2900 0 
L 1881 1375 
L 863 0 
L 184 0 
L 1544 1831 
L 300 3500 
L 978 3500 
L 1906 2253 
L 2834 3500 
L 3513 3500 
z
" transform="scale(0.015625)"/>
        <path id="DejaVuSans-53" d="M 1159 525 
L 1159 -1331 
L 581 -1331 
L 581 3500 
L 1159 3500 
L 1159 2969 
Q 1341 3281 1617 3432 
Q 1894 3584 2278 3584 
Q 2916 3584 3314 3078 
Q 3713 2572 3713 1747 
Q 3713 922 3314 415 
Q 2916 -91 2278 -91 
Q 1894 -91 1617 61 
Q 1341 213 1159 525 
z
M 3116 1747 
Q 3116 2381 2855 2742 
Q 2594 3103 2138 3103 
Q 1681 3103 1420 2742 
Q 1159 2381 1159 1747 
Q 1159 1113 1420 752 
Q 1681 391 2138 391 
Q 2594 391 2855 752 
Q 3116 1113 3116 1747 
z
" transform="scale(0.015625)"/>
        <path id="DejaVuSans-4f" d="M 603 4863 
L 1178 4863 
L 1178 0 
L 603 0 
L 603 4863 
z
" transform="scale(0.015625)"/>
        <path id="DejaVuSans-46" d="M 3122 3366 
L 3122 2828 
Q 2878 2963 2633 3030 
Q 2388 3097 2138 3097 
Q 1578 3097 1268 2742 
Q 959 2388 959 1747 
Q 959 1106 1268 751 
Q 1578 397 2138 397 
Q 2388 397 2633 464 
Q 2878 531 3122 666 
L 3122 134 
Q 2881 22 2623 -34 
Q 2366 -91 2075 -91 
Q 1284 -91 818 406 
Q 353 903 353 1747 
Q 353 2603 823 3093 
Q 1294 3584 2113 3584 
Q 2378 3584 2631 3529 
Q 2884 3475 3122 3366 
z
" transform="scale(0.015625)"/>
        <path id="DejaVuSans-57" d="M 1172 4494 
L 1172 3500 
L 2356 3500 
L 2356 3053 
L 1172 3053 
L 1172 1153 
Q 1172 725 1289 603 
Q 1406 481 1766 481 
L 2356 481 
L 2356 0 
L 1766 0 
Q 1100 0 847 248 
Q 594 497 594 1153 
L 594 3053 
L 172 3053 
L 172 3500 
L 594 3500 
L 594 4494 
L 1172 4494 
z
" transform="scale(0.015625)"/>
       </defs>
       <use xlink:href="#DejaVuSans-48"/>
       <use xlink:href="#DejaVuSans-5b" transform="translate(59.78125 0)"/>
       <use xlink:href="#DejaVuSans-53" transform="translate(118.96875 0)"/>
       <use xlink:href="#DejaVuSans-4f" transform="translate(182.453125 0)"/>
       <use xlink:href="#DejaVuSans-4c" transform="translate(210.234375 0)"/>
       <use xlink:href="#DejaVuSans-46" transform="translate(238.015625 0)"/>
       <use xlink:href="#DejaVuSans-4c" transform="translate(293 0)"/>
       <use xlink:href="#DejaVuSans-57" transform="translate(320.78125 0)"/>
      </g>
     </g>
    </g>
    <g id="xtick_3">
     <g id="line2d_3">
      <g>
       <use xlink:href="#md500cd0beb" x="155.153427" y="194.72" style="fill: #52514e; stroke: #52514e; stroke-width: 0.8"/>
      </g>
     </g>
     <g id="text_3">
      <!-- Ministral -->
      <g style="fill: #52514e" transform="translate(139.152645 208.169561) scale(0.075 -0.075)">
       <defs>
        <path id="DejaVuSans-30" d="M 628 4666 
L 1569 4666 
L 2759 1491 
L 3956 4666 
L 4897 4666 
L 4897 0 
L 4281 0 
L 4281 4097 
L 3078 897 
L 2444 897 
L 1241 4097 
L 1241 0 
L 628 0 
L 628 4666 
z
" transform="scale(0.015625)"/>
        <path id="DejaVuSans-56" d="M 2834 3397 
L 2834 2853 
Q 2591 2978 2328 3040 
Q 2066 3103 1784 3103 
Q 1356 3103 1142 2972 
Q 928 2841 928 2578 
Q 928 2378 1081 2264 
Q 1234 2150 1697 2047 
L 1894 2003 
Q 2506 1872 2764 1633 
Q 3022 1394 3022 966 
Q 3022 478 2636 193 
Q 2250 -91 1575 -91 
Q 1294 -91 989 -36 
Q 684 19 347 128 
L 347 722 
Q 666 556 975 473 
Q 1284 391 1588 391 
Q 1994 391 2212 530 
Q 2431 669 2431 922 
Q 2431 1156 2273 1281 
Q 2116 1406 1581 1522 
L 1381 1569 
Q 847 1681 609 1914 
Q 372 2147 372 2553 
Q 372 3047 722 3315 
Q 1072 3584 1716 3584 
Q 2034 3584 2315 3537 
Q 2597 3491 2834 3397 
z
" transform="scale(0.015625)"/>
        <path id="DejaVuSans-55" d="M 2631 2963 
Q 2534 3019 2420 3045 
Q 2306 3072 2169 3072 
Q 1681 3072 1420 2755 
Q 1159 2438 1159 1844 
L 1159 0 
L 581 0 
L 581 3500 
L 1159 3500 
L 1159 2956 
Q 1341 3275 1631 3429 
Q 1922 3584 2338 3584 
Q 2397 3584 2469 3576 
Q 2541 3569 2628 3553 
L 2631 2963 
z
" transform="scale(0.015625)"/>
       </defs>
       <use xlink:href="#DejaVuSans-30"/>
       <use xlink:href="#DejaVuSans-4c" transform="translate(86.28125 0)"/>
       <use xlink:href="#DejaVuSans-51" transform="translate(114.0625 0)"/>
       <use xlink:href="#DejaVuSans-4c" transform="translate(177.4375 0)"/>
       <use xlink:href="#DejaVuSans-56" transform="translate(205.21875 0)"/>
       <use xlink:href="#DejaVuSans-57" transform="translate(257.3125 0)"/>
       <use xlink:href="#DejaVuSans-55" transform="translate(296.515625 0)"/>
       <use xlink:href="#DejaVuSans-44" transform="translate(337.625 0)"/>
       <use xlink:href="#DejaVuSans-4f" transform="translate(398.90625 0)"/>
      </g>
      <!-- ambig. -->
      <g style="fill: #52514e" transform="translate(142.207723 217.171611) scale(0.075 -0.075)">
       <use xlink:href="#DejaVuSans-44"/>
       <use xlink:href="#DejaVuSans-50" transform="translate(61.28125 0)"/>
       <use xlink:href="#DejaVuSans-45" transform="translate(158.6875 0)"/>
       <use xlink:href="#DejaVuSans-4c" transform="translate(222.171875 0)"/>
       <use xlink:href="#DejaVuSans-4a" transform="translate(249.953125 0)"/>
       <use xlink:href="#DejaVuSans-11" transform="translate(313.4375 0)"/>
      </g>
     </g>
    </g>
    <g id="xtick_4">
     <g id="line2d_4">
      <g>
       <use xlink:href="#md500cd0beb" x="201.269129" y="194.72" style="fill: #52514e; stroke: #52514e; stroke-width: 0.8"/>
      </g>
     </g>
     <g id="text_4">
      <!-- Ministral -->
      <g style="fill: #52514e" transform="translate(185.268348 208.169561) scale(0.075 -0.075)">
       <use xlink:href="#DejaVuSans-30"/>
       <use xlink:href="#DejaVuSans-4c" transform="translate(86.28125 0)"/>
       <use xlink:href="#DejaVuSans-51" transform="translate(114.0625 0)"/>
       <use xlink:href="#DejaVuSans-4c" transform="translate(177.4375 0)"/>
       <use xlink:href="#DejaVuSans-56" transform="translate(205.21875 0)"/>
       <use xlink:href="#DejaVuSans-57" transform="translate(257.3125 0)"/>
       <use xlink:href="#DejaVuSans-55" transform="translate(296.515625 0)"/>
       <use xlink:href="#DejaVuSans-44" transform="translate(337.625 0)"/>
       <use xlink:href="#DejaVuSans-4f" transform="translate(398.90625 0)"/>
      </g>
      <!-- explicit -->
      <g style="fill: #52514e" transform="translate(187.769715 217.171611) scale(0.075 -0.075)">
       <use xlink:href="#DejaVuSans-48"/>
       <use xlink:href="#DejaVuSans-5b" transform="translate(59.78125 0)"/>
       <use xlink:href="#DejaVuSans-53" transform="translate(118.96875 0)"/>
       <use xlink:href="#DejaVuSans-4f" transform="translate(182.453125 0)"/>
       <use xlink:href="#DejaVuSans-4c" transform="translate(210.234375 0)"/>
       <use xlink:href="#DejaVuSans-46" transform="translate(238.015625 0)"/>
       <use xlink:href="#DejaVuSans-4c" transform="translate(293 0)"/>
       <use xlink:href="#DejaVuSans-57" transform="translate(320.78125 0)"/>
      </g>
     </g>
    </g>
   </g>
   <g id="matplotlib.axis_2">
    <g id="ytick_1">
     <g id="line2d_5">
      <path d="M 40.786484 194.076404 
L 223.404666 194.076404 
" clip-path="url(#pe866e5e3ad)" style="fill: none; stroke: #e4e3df; stroke-width: 0.6; stroke-linecap: square"/>
     </g>
     <g id="line2d_6">
      <defs>
       <path id="m0a0f951ee2" d="M 0 0 
L -3.5 0 
" style="stroke: #52514e; stroke-width: 0.8"/>
      </defs>
      <g>
       <use xlink:href="#m0a0f951ee2" x="40.786484" y="194.076404" style="fill: #52514e; stroke: #52514e; stroke-width: 0.8"/>
      </g>
     </g>
     <g id="text_5">
      <!-- 0.74 -->
      <g style="fill: #52514e" transform="translate(18.200547 196.735584) scale(0.07 -0.07)">
       <defs>
        <path id="DejaVuSans-13" d="M 2034 4250 
Q 1547 4250 1301 3770 
Q 1056 3291 1056 2328 
Q 1056 1369 1301 889 
Q 1547 409 2034 409 
Q 2525 409 2770 889 
Q 3016 1369 3016 2328 
Q 3016 3291 2770 3770 
Q 2525 4250 2034 4250 
z
M 2034 4750 
Q 2819 4750 3233 4129 
Q 3647 3509 3647 2328 
Q 3647 1150 3233 529 
Q 2819 -91 2034 -91 
Q 1250 -91 836 529 
Q 422 1150 422 2328 
Q 422 3509 836 4129 
Q 1250 4750 2034 4750 
z
" transform="scale(0.015625)"/>
        <path id="DejaVuSans-1a" d="M 525 4666 
L 3525 4666 
L 3525 4397 
L 1831 0 
L 1172 0 
L 2766 4134 
L 525 4134 
L 525 4666 
z
" transform="scale(0.015625)"/>
        <path id="DejaVuSans-17" d="M 2419 4116 
L 825 1625 
L 2419 1625 
L 2419 4116 
z
M 2253 4666 
L 3047 4666 
L 3047 1625 
L 3713 1625 
L 3713 1100 
L 3047 1100 
L 3047 0 
L 2419 0 
L 2419 1100 
L 313 1100 
L 313 1709 
L 2253 4666 
z
" transform="scale(0.015625)"/>
       </defs>
       <use xlink:href="#DejaVuSans-13"/>
       <use xlink:href="#DejaVuSans-11" transform="translate(63.625 0)"/>
       <use xlink:href="#DejaVuSans-1a" transform="translate(95.40625 0)"/>
       <use xlink:href="#DejaVuSans-17" transform="translate(159.03125 0)"/>
      </g>
     </g>
    </g>
    <g id="ytick_2">
     <g id="line2d_7">
      <path d="M 40.786484 170.571481 
L 223.404666 170.571481 
" clip-path="url(#pe866e5e3ad)" style="fill: none; stroke: #e4e3df; stroke-width: 0.6; stroke-linecap: square"/>
     </g>
     <g id="line2d_8">
      <g>
       <use xlink:href="#m0a0f951ee2" x="40.786484" y="170.571481" style="fill: #52514e; stroke: #52514e; stroke-width: 0.8"/>
      </g>
     </g>
     <g id="text_6">
      <!-- 0.75 -->
      <g style="fill: #52514e" transform="translate(18.200547 173.230661) scale(0.07 -0.07)">
       <defs>
        <path id="DejaVuSans-18" d="M 691 4666 
L 3169 4666 
L 3169 4134 
L 1269 4134 
L 1269 2991 
Q 1406 3038 1543 3061 
Q 1681 3084 1819 3084 
Q 2600 3084 3056 2656 
Q 3513 2228 3513 1497 
Q 3513 744 3044 326 
Q 2575 -91 1722 -91 
Q 1428 -91 1123 -41 
Q 819 9 494 109 
L 494 744 
Q 775 591 1075 516 
Q 1375 441 1709 441 
Q 2250 441 2565 725 
Q 2881 1009 2881 1497 
Q 2881 1984 2565 2268 
Q 2250 2553 1709 2553 
Q 1456 2553 1204 2497 
Q 953 2441 691 2322 
L 691 4666 
z
" transform="scale(0.015625)"/>
       </defs>
       <use xlink:href="#DejaVuSans-13"/>
       <use xlink:href="#DejaVuSans-11" transform="translate(63.625 0)"/>
       <use xlink:href="#DejaVuSans-1a" transform="translate(95.40625 0)"/>
       <use xlink:href="#DejaVuSans-18" transform="translate(159.03125 0)"/>
      </g>
     </g>
    </g>
    <g id="ytick_3">
     <g id="line2d_9">
      <path d="M 40.786484 147.066558 
L 223.404666 147.066558 
" clip-path="url(#pe866e5e3ad)" style="fill: none; stroke: #e4e3df; stroke-width: 0.6; stroke-linecap: square"/>
     </g>
     <g id="line2d_10">
      <g>
       <use xlink:href="#m0a0f951ee2" x="40.786484" y="147.066558" style="fill: #52514e; stroke: #52514e; stroke-width: 0.8"/>
      </g>
     </g>
     <g id="text_7">
      <!-- 0.76 -->
      <g style="fill: #52514e" transform="translate(18.200547 149.725738) scale(0.07 -0.07)">
       <defs>
        <path id="DejaVuSans-19" d="M 2113 2584 
Q 1688 2584 1439 2293 
Q 1191 2003 1191 1497 
Q 1191 994 1439 701 
Q 1688 409 2113 409 
Q 2538 409 2786 701 
Q 3034 994 3034 1497 
Q 3034 2003 2786 2293 
Q 2538 2584 2113 2584 
z
M 3366 4563 
L 3366 3988 
Q 3128 4100 2886 4159 
Q 2644 4219 2406 4219 
Q 1781 4219 1451 3797 
Q 1122 3375 1075 2522 
Q 1259 2794 1537 2939 
Q 1816 3084 2150 3084 
Q 2853 3084 3261 2657 
Q 3669 2231 3669 1497 
Q 3669 778 3244 343 
Q 2819 -91 2113 -91 
Q 1303 -91 875 529 
Q 447 1150 447 2328 
Q 447 3434 972 4092 
Q 1497 4750 2381 4750 
Q 2619 4750 2861 4703 
Q 3103 4656 3366 4563 
z
" transform="scale(0.015625)"/>
       </defs>
       <use xlink:href="#DejaVuSans-13"/>
       <use xlink:href="#DejaVuSans-11" transform="translate(63.625 0)"/>
       <use xlink:href="#DejaVuSans-1a" transform="translate(95.40625 0)"/>
       <use xlink:href="#DejaVuSans-19" transform="translate(159.03125 0)"/>
      </g>
     </g>
    </g>
    <g id="ytick_4">
     <g id="line2d_11">
      <path d="M 40.786484 123.561635 
L 223.404666 123.561635 
" clip-path="url(#pe866e5e3ad)" style="fill: none; stroke: #e4e3df; stroke-width: 0.6; stroke-linecap: square"/>
     </g>
     <g id="line2d_12">
      <g>
       <use xlink:href="#m0a0f951ee2" x="40.786484" y="123.561635" style="fill: #52514e; stroke: #52514e; stroke-width: 0.8"/>
      </g>
     </g>
     <g id="text_8">
      <!-- 0.77 -->
      <g style="fill: #52514e" transform="translate(18.200547 126.220815) scale(0.07 -0.07)">
       <use xlink:href="#DejaVuSans-13"/>
       <use xlink:href="#DejaVuSans-11" transform="translate(63.625 0)"/>
       <use xlink:href="#DejaVuSans-1a" transform="translate(95.40625 0)"/>
       <use xlink:href="#DejaVuSans-1a" transform="translate(159.03125 0)"/>
      </g>
     </g>
    </g>
    <g id="ytick_5">
     <g id="line2d_13">
      <path d="M 40.786484 100.056712 
L 223.404666 100.056712 
" clip-path="url(#pe866e5e3ad)" style="fill: none; stroke: #e4e3df; stroke-width: 0.6; stroke-linecap: square"/>
     </g>
     <g id="line2d_14">
      <g>
       <use xlink:href="#m0a0f951ee2" x="40.786484" y="100.056712" style="fill: #52514e; stroke: #52514e; stroke-width: 0.8"/>
      </g>
     </g>
     <g id="text_9">
      <!-- 0.78 -->
      <g style="fill: #52514e" transform="translate(18.200547 102.715892) scale(0.07 -0.07)">
       <defs>
        <path id="DejaVuSans-1b" d="M 2034 2216 
Q 1584 2216 1326 1975 
Q 1069 1734 1069 1313 
Q 1069 891 1326 650 
Q 1584 409 2034 409 
Q 2484 409 2743 651 
Q 3003 894 3003 1313 
Q 3003 1734 2745 1975 
Q 2488 2216 2034 2216 
z
M 1403 2484 
Q 997 2584 770 2862 
Q 544 3141 544 3541 
Q 544 4100 942 4425 
Q 1341 4750 2034 4750 
Q 2731 4750 3128 4425 
Q 3525 4100 3525 3541 
Q 3525 3141 3298 2862 
Q 3072 2584 2669 2484 
Q 3125 2378 3379 2068 
Q 3634 1759 3634 1313 
Q 3634 634 3220 271 
Q 2806 -91 2034 -91 
Q 1263 -91 848 271 
Q 434 634 434 1313 
Q 434 1759 690 2068 
Q 947 2378 1403 2484 
z
M 1172 3481 
Q 1172 3119 1398 2916 
Q 1625 2713 2034 2713 
Q 2441 2713 2670 2916 
Q 2900 3119 2900 3481 
Q 2900 3844 2670 4047 
Q 2441 4250 2034 4250 
Q 1625 4250 1398 4047 
Q 1172 3844 1172 3481 
z
" transform="scale(0.015625)"/>
       </defs>
       <use xlink:href="#DejaVuSans-13"/>
       <use xlink:href="#DejaVuSans-11" transform="translate(63.625 0)"/>
       <use xlink:href="#DejaVuSans-1a" transform="translate(95.40625 0)"/>
       <use xlink:href="#DejaVuSans-1b" transform="translate(159.03125 0)"/>
      </g>
     </g>
    </g>
    <g id="ytick_6">
     <g id="line2d_15">
      <path d="M 40.786484 76.551789 
L 223.404666 76.551789 
" clip-path="url(#pe866e5e3ad)" style="fill: none; stroke: #e4e3df; stroke-width: 0.6; stroke-linecap: square"/>
     </g>
     <g id="line2d_16">
      <g>
       <use xlink:href="#m0a0f951ee2" x="40.786484" y="76.551789" style="fill: #52514e; stroke: #52514e; stroke-width: 0.8"/>
      </g>
     </g>
     <g id="text_10">
      <!-- 0.79 -->
      <g style="fill: #52514e" transform="translate(18.200547 79.210969) scale(0.07 -0.07)">
       <defs>
        <path id="DejaVuSans-1c" d="M 703 97 
L 703 672 
Q 941 559 1184 500 
Q 1428 441 1663 441 
Q 2288 441 2617 861 
Q 2947 1281 2994 2138 
Q 2813 1869 2534 1725 
Q 2256 1581 1919 1581 
Q 1219 1581 811 2004 
Q 403 2428 403 3163 
Q 403 3881 828 4315 
Q 1253 4750 1959 4750 
Q 2769 4750 3195 4129 
Q 3622 3509 3622 2328 
Q 3622 1225 3098 567 
Q 2575 -91 1691 -91 
Q 1453 -91 1209 -44 
Q 966 3 703 97 
z
M 1959 2075 
Q 2384 2075 2632 2365 
Q 2881 2656 2881 3163 
Q 2881 3666 2632 3958 
Q 2384 4250 1959 4250 
Q 1534 4250 1286 3958 
Q 1038 3666 1038 3163 
Q 1038 2656 1286 2365 
Q 1534 2075 1959 2075 
z
" transform="scale(0.015625)"/>
       </defs>
       <use xlink:href="#DejaVuSans-13"/>
       <use xlink:href="#DejaVuSans-11" transform="translate(63.625 0)"/>
       <use xlink:href="#DejaVuSans-1a" transform="translate(95.40625 0)"/>
       <use xlink:href="#DejaVuSans-1c" transform="translate(159.03125 0)"/>
      </g>
     </g>
    </g>
    <g id="ytick_7">
     <g id="line2d_17">
      <path d="M 40.786484 53.046866 
L 223.404666 53.046866 
" clip-path="url(#pe866e5e3ad)" style="fill: none; stroke: #e4e3df; stroke-width: 0.6; stroke-linecap: square"/>
     </g>
     <g id="line2d_18">
      <g>
       <use xlink:href="#m0a0f951ee2" x="40.786484" y="53.046866" style="fill: #52514e; stroke: #52514e; stroke-width: 0.8"/>
      </g>
     </g>
     <g id="text_11">
      <!-- 0.80 -->
      <g style="fill: #52514e" transform="translate(18.200547 55.706046) scale(0.07 -0.07)">
       <use xlink:href="#DejaVuSans-13"/>
       <use xlink:href="#DejaVuSans-11" transform="translate(63.625 0)"/>
       <use xlink:href="#DejaVuSans-1b" transform="translate(95.40625 0)"/>
       <use xlink:href="#DejaVuSans-13" transform="translate(159.03125 0)"/>
      </g>
     </g>
    </g>
    <g id="text_12">
     <!-- Recommendation utility -->
     <g style="fill: #0b0b0b" transform="translate(12.518906 158.922984) rotate(-90) scale(0.07 -0.07)">
      <defs>
       <path id="DejaVuSans-35" d="M 2841 2188 
Q 3044 2119 3236 1894 
Q 3428 1669 3622 1275 
L 4263 0 
L 3584 0 
L 2988 1197 
Q 2756 1666 2539 1819 
Q 2322 1972 1947 1972 
L 1259 1972 
L 1259 0 
L 628 0 
L 628 4666 
L 2053 4666 
Q 2853 4666 3247 4331 
Q 3641 3997 3641 3322 
Q 3641 2881 3436 2590 
Q 3231 2300 2841 2188 
z
M 1259 4147 
L 1259 2491 
L 2053 2491 
Q 2509 2491 2742 2702 
Q 2975 2913 2975 3322 
Q 2975 3731 2742 3939 
Q 2509 4147 2053 4147 
L 1259 4147 
z
" transform="scale(0.015625)"/>
       <path id="DejaVuSans-52" d="M 1959 3097 
Q 1497 3097 1228 2736 
Q 959 2375 959 1747 
Q 959 1119 1226 758 
Q 1494 397 1959 397 
Q 2419 397 2687 759 
Q 2956 1122 2956 1747 
Q 2956 2369 2687 2733 
Q 2419 3097 1959 3097 
z
M 1959 3584 
Q 2709 3584 3137 3096 
Q 3566 2609 3566 1747 
Q 3566 888 3137 398 
Q 2709 -91 1959 -91 
Q 1206 -91 779 398 
Q 353 888 353 1747 
Q 353 2609 779 3096 
Q 1206 3584 1959 3584 
z
" transform="scale(0.015625)"/>
       <path id="DejaVuSans-47" d="M 2906 2969 
L 2906 4863 
L 3481 4863 
L 3481 0 
L 2906 0 
L 2906 525 
Q 2725 213 2448 61 
Q 2172 -91 1784 -91 
Q 1150 -91 751 415 
Q 353 922 353 1747 
Q 353 2572 751 3078 
Q 1150 3584 1784 3584 
Q 2172 3584 2448 3432 
Q 2725 3281 2906 2969 
z
M 947 1747 
Q 947 1113 1208 752 
Q 1469 391 1925 391 
Q 2381 391 2643 752 
Q 2906 1113 2906 1747 
Q 2906 2381 2643 2742 
Q 2381 3103 1925 3103 
Q 1469 3103 1208 2742 
Q 947 2381 947 1747 
z
" transform="scale(0.015625)"/>
       <path id="DejaVuSans-3" transform="scale(0.015625)"/>
       <path id="DejaVuSans-58" d="M 544 1381 
L 544 3500 
L 1119 3500 
L 1119 1403 
Q 1119 906 1312 657 
Q 1506 409 1894 409 
Q 2359 409 2629 706 
Q 2900 1003 2900 1516 
L 2900 3500 
L 3475 3500 
L 3475 0 
L 2900 0 
L 2900 538 
Q 2691 219 2414 64 
Q 2138 -91 1772 -91 
Q 1169 -91 856 284 
Q 544 659 544 1381 
z
M 1991 3584 
L 1991 3584 
z
" transform="scale(0.015625)"/>
       <path id="DejaVuSans-5c" d="M 2059 -325 
Q 1816 -950 1584 -1140 
Q 1353 -1331 966 -1331 
L 506 -1331 
L 506 -850 
L 844 -850 
Q 1081 -850 1212 -737 
Q 1344 -625 1503 -206 
L 1606 56 
L 191 3500 
L 800 3500 
L 1894 763 
L 2988 3500 
L 3597 3500 
L 2059 -325 
z
" transform="scale(0.015625)"/>
      </defs>
      <use xlink:href="#DejaVuSans-35"/>
      <use xlink:href="#DejaVuSans-48" transform="translate(65 0)"/>
      <use xlink:href="#DejaVuSans-46" transform="translate(126.53125 0)"/>
      <use xlink:href="#DejaVuSans-52" transform="translate(181.515625 0)"/>
      <use xlink:href="#DejaVuSans-50" transform="translate(242.703125 0)"/>
      <use xlink:href="#DejaVuSans-50" transform="translate(340.109375 0)"/>
      <use xlink:href="#DejaVuSans-48" transform="translate(437.515625 0)"/>
      <use xlink:href="#DejaVuSans-51" transform="translate(499.046875 0)"/>
      <use xlink:href="#DejaVuSans-47" transform="translate(562.421875 0)"/>
      <use xlink:href="#DejaVuSans-44" transform="translate(625.90625 0)"/>
      <use xlink:href="#DejaVuSans-57" transform="translate(687.1875 0)"/>
      <use xlink:href="#DejaVuSans-4c" transform="translate(726.390625 0)"/>
      <use xlink:href="#DejaVuSans-52" transform="translate(754.171875 0)"/>
      <use xlink:href="#DejaVuSans-51" transform="translate(815.359375 0)"/>
      <use xlink:href="#DejaVuSans-3" transform="translate(878.734375 0)"/>
      <use xlink:href="#DejaVuSans-58" transform="translate(910.515625 0)"/>
      <use xlink:href="#DejaVuSans-57" transform="translate(973.890625 0)"/>
      <use xlink:href="#DejaVuSans-4c" transform="translate(1013.09375 0)"/>
      <use xlink:href="#DejaVuSans-4f" transform="translate(1040.875 0)"/>
      <use xlink:href="#DejaVuSans-4c" transform="translate(1068.65625 0)"/>
      <use xlink:href="#DejaVuSans-57" transform="translate(1096.4375 0)"/>
      <use xlink:href="#DejaVuSans-5c" transform="translate(1135.640625 0)"/>
     </g>
    </g>
   </g>
   <g id="line2d_19">
    <path d="M 49.087311 108.176367 
L 49.087311 82.705902 
" clip-path="url(#pe866e5e3ad)" style="fill: none; stroke: #2a78d6; stroke-width: 2; stroke-linecap: square"/>
   </g>
   <g id="line2d_20">
    <defs>
     <path id="m656ee0d453" d="M 0 3.5 
C 0.928211 3.5 1.81853 3.131218 2.474874 2.474874 
C 3.131218 1.81853 3.5 0.928211 3.5 0 
C 3.5 -0.928211 3.131218 -1.81853 2.474874 -2.474874 
C 1.81853 -3.131218 0.928211 -3.5 0 -3.5 
C -0.928211 -3.5 -1.81853 -3.131218 -2.474874 -2.474874 
C -3.131218 -1.81853 -3.5 -0.928211 -3.5 0 
C -3.5 0.928211 -3.131218 1.81853 -2.474874 2.474874 
C -1.81853 3.131218 -0.928211 3.5 0 3.5 
z
" style="stroke: #fcfcfb; stroke-width: 2"/>
    </defs>
    <g clip-path="url(#pe866e5e3ad)">
     <use xlink:href="#m656ee0d453" x="49.087311" y="95.394385" style="fill: #2a78d6; stroke: #fcfcfb; stroke-width: 2"/>
    </g>
   </g>
   <g id="line2d_21">
    <path d="M 58.310451 110.959753 
L 58.310451 84.297117 
" clip-path="url(#pe866e5e3ad)" style="fill: none; stroke: #eb6834; stroke-width: 2; stroke-linecap: square"/>
   </g>
   <g id="line2d_22">
    <defs>
     <path id="m28c51101f0" d="M 0 3.5 
C 0.928211 3.5 1.81853 3.131218 2.474874 2.474874 
C 3.131218 1.81853 3.5 0.928211 3.5 0 
C 3.5 -0.928211 3.131218 -1.81853 2.474874 -2.474874 
C 1.81853 -3.131218 0.928211 -3.5 0 -3.5 
C -0.928211 -3.5 -1.81853 -3.131218 -2.474874 -2.474874 
C -3.131218 -1.81853 -3.5 -0.928211 -3.5 0 
C -3.5 0.928211 -3.131218 1.81853 -2.474874 2.474874 
C -1.81853 3.131218 -0.928211 3.5 0 3.5 
z
" style="stroke: #fcfcfb; stroke-width: 2"/>
    </defs>
    <g clip-path="url(#pe866e5e3ad)">
     <use xlink:href="#m28c51101f0" x="58.310451" y="98.361603" style="fill: #eb6834; stroke: #fcfcfb; stroke-width: 2"/>
    </g>
   </g>
   <g id="line2d_23">
    <path d="M 67.533592 118.905154 
L 67.533592 89.633544 
" clip-path="url(#pe866e5e3ad)" style="fill: none; stroke: #1baf7a; stroke-width: 2; stroke-linecap: square"/>
   </g>
   <g id="line2d_24">
    <defs>
     <path id="mc7003303ea" d="M 0 3.5 
C 0.928211 3.5 1.81853 3.131218 2.474874 2.474874 
C 3.131218 1.81853 3.5 0.928211 3.5 0 
C 3.5 -0.928211 3.131218 -1.81853 2.474874 -2.474874 
C 1.81853 -3.131218 0.928211 -3.5 0 -3.5 
C -0.928211 -3.5 -1.81853 -3.131218 -2.474874 -2.474874 
C -3.131218 -1.81853 -3.5 -0.928211 -3.5 0 
C -3.5 0.928211 -3.131218 1.81853 -2.474874 2.474874 
C -1.81853 3.131218 -0.928211 3.5 0 3.5 
z
" style="stroke: #fcfcfb; stroke-width: 2"/>
    </defs>
    <g clip-path="url(#pe866e5e3ad)">
     <use xlink:href="#mc7003303ea" x="67.533592" y="104.508417" style="fill: #1baf7a; stroke: #fcfcfb; stroke-width: 2"/>
    </g>
   </g>
   <g id="line2d_25">
    <path d="M 76.756732 109.221365 
L 76.756732 84.016844 
" clip-path="url(#pe866e5e3ad)" style="fill: none; stroke: #eda100; stroke-width: 2; stroke-linecap: square"/>
   </g>
   <g id="line2d_26">
    <defs>
     <path id="maeaf56d0b4" d="M 0 3.5 
C 0.928211 3.5 1.81853 3.131218 2.474874 2.474874 
C 3.131218 1.81853 3.5 0.928211 3.5 0 
C 3.5 -0.928211 3.131218 -1.81853 2.474874 -2.474874 
C 1.81853 -3.131218 0.928211 -3.5 0 -3.5 
C -0.928211 -3.5 -1.81853 -3.131218 -2.474874 -2.474874 
C -3.131218 -1.81853 -3.5 -0.928211 -3.5 0 
C -3.5 0.928211 -3.131218 1.81853 -2.474874 2.474874 
C -1.81853 3.131218 -0.928211 3.5 0 3.5 
z
" style="stroke: #fcfcfb; stroke-width: 2"/>
    </defs>
    <g clip-path="url(#pe866e5e3ad)">
     <use xlink:href="#maeaf56d0b4" x="76.756732" y="96.563189" style="fill: #eda100; stroke: #fcfcfb; stroke-width: 2"/>
    </g>
   </g>
   <g id="line2d_27">
    <path d="M 95.203013 86.702029 
L 95.203013 46.544 
" clip-path="url(#pe866e5e3ad)" style="fill: none; stroke: #2a78d6; stroke-width: 2; stroke-linecap: square"/>
   </g>
   <g id="line2d_28">
    <g clip-path="url(#pe866e5e3ad)">
     <use xlink:href="#m656ee0d453" x="95.203013" y="66.903887" style="fill: #2a78d6; stroke: #fcfcfb; stroke-width: 2"/>
    </g>
   </g>
   <g id="line2d_29">
    <path d="M 104.426154 86.6452 
L 104.426154 48.485669 
" clip-path="url(#pe866e5e3ad)" style="fill: none; stroke: #eb6834; stroke-width: 2; stroke-linecap: square"/>
   </g>
   <g id="line2d_30">
    <g clip-path="url(#pe866e5e3ad)">
     <use xlink:href="#m28c51101f0" x="104.426154" y="68.343652" style="fill: #eb6834; stroke: #fcfcfb; stroke-width: 2"/>
    </g>
   </g>
   <g id="line2d_31">
    <path d="M 113.649294 102.155116 
L 113.649294 67.797623 
" clip-path="url(#pe866e5e3ad)" style="fill: none; stroke: #1baf7a; stroke-width: 2; stroke-linecap: square"/>
   </g>
   <g id="line2d_32">
    <g clip-path="url(#pe866e5e3ad)">
     <use xlink:href="#mc7003303ea" x="113.649294" y="85.131952" style="fill: #1baf7a; stroke: #fcfcfb; stroke-width: 2"/>
    </g>
   </g>
   <g id="line2d_33">
    <path d="M 122.872435 94.506527 
L 122.872435 49.548955 
" clip-path="url(#pe866e5e3ad)" style="fill: none; stroke: #eda100; stroke-width: 2; stroke-linecap: square"/>
   </g>
   <g id="line2d_34">
    <g clip-path="url(#pe866e5e3ad)">
     <use xlink:href="#maeaf56d0b4" x="122.872435" y="72.5834" style="fill: #eda100; stroke: #fcfcfb; stroke-width: 2"/>
    </g>
   </g>
   <g id="line2d_35">
    <path d="M 141.318716 152.185306 
L 141.318716 67.716428 
" clip-path="url(#pe866e5e3ad)" style="fill: none; stroke: #2a78d6; stroke-width: 2; stroke-linecap: square"/>
   </g>
   <g id="line2d_36">
    <g clip-path="url(#pe866e5e3ad)">
     <use xlink:href="#m656ee0d453" x="141.318716" y="108.796243" style="fill: #2a78d6; stroke: #fcfcfb; stroke-width: 2"/>
    </g>
   </g>
   <g id="line2d_37">
    <path d="M 150.541856 165.560174 
L 150.541856 91.547649 
" clip-path="url(#pe866e5e3ad)" style="fill: none; stroke: #eb6834; stroke-width: 2; stroke-linecap: square"/>
   </g>
   <g id="line2d_38">
    <g clip-path="url(#pe866e5e3ad)">
     <use xlink:href="#m28c51101f0" x="150.541856" y="127.77231" style="fill: #eb6834; stroke: #fcfcfb; stroke-width: 2"/>
    </g>
   </g>
   <g id="line2d_39">
    <path d="M 159.764997 153.734774 
L 159.764997 103.771793 
" clip-path="url(#pe866e5e3ad)" style="fill: none; stroke: #1baf7a; stroke-width: 2; stroke-linecap: square"/>
   </g>
   <g id="line2d_40">
    <g clip-path="url(#pe866e5e3ad)">
     <use xlink:href="#mc7003303ea" x="159.764997" y="128.045302" style="fill: #1baf7a; stroke: #fcfcfb; stroke-width: 2"/>
    </g>
   </g>
   <g id="line2d_41">
    <path d="M 168.988137 187.664 
L 168.988137 105.512415 
" clip-path="url(#pe866e5e3ad)" style="fill: none; stroke: #eda100; stroke-width: 2; stroke-linecap: square"/>
   </g>
   <g id="line2d_42">
    <g clip-path="url(#pe866e5e3ad)">
     <use xlink:href="#maeaf56d0b4" x="168.988137" y="145.988886" style="fill: #eda100; stroke: #fcfcfb; stroke-width: 2"/>
    </g>
   </g>
   <g id="line2d_43">
    <path d="M 187.434418 141.551346 
L 187.434418 79.450454 
" clip-path="url(#pe866e5e3ad)" style="fill: none; stroke: #2a78d6; stroke-width: 2; stroke-linecap: square"/>
   </g>
   <g id="line2d_44">
    <g clip-path="url(#pe866e5e3ad)">
     <use xlink:href="#m656ee0d453" x="187.434418" y="111.318912" style="fill: #2a78d6; stroke: #fcfcfb; stroke-width: 2"/>
    </g>
   </g>
   <g id="line2d_45">
    <path d="M 196.657559 105.484539 
L 196.657559 60.328118 
" clip-path="url(#pe866e5e3ad)" style="fill: none; stroke: #eb6834; stroke-width: 2; stroke-linecap: square"/>
   </g>
   <g id="line2d_46">
    <g clip-path="url(#pe866e5e3ad)">
     <use xlink:href="#m28c51101f0" x="196.657559" y="83.368834" style="fill: #eb6834; stroke: #fcfcfb; stroke-width: 2"/>
    </g>
   </g>
   <g id="line2d_47">
    <path d="M 205.880699 97.428816 
L 205.880699 56.000734 
" clip-path="url(#pe866e5e3ad)" style="fill: none; stroke: #1baf7a; stroke-width: 2; stroke-linecap: square"/>
   </g>
   <g id="line2d_48">
    <g clip-path="url(#pe866e5e3ad)">
     <use xlink:href="#mc7003303ea" x="205.880699" y="77.187487" style="fill: #1baf7a; stroke: #fcfcfb; stroke-width: 2"/>
    </g>
   </g>
   <g id="line2d_49">
    <path d="M 215.10384 103.973676 
L 215.10384 63.713439 
" clip-path="url(#pe866e5e3ad)" style="fill: none; stroke: #eda100; stroke-width: 2; stroke-linecap: square"/>
   </g>
   <g id="line2d_50">
    <g clip-path="url(#pe866e5e3ad)">
     <use xlink:href="#maeaf56d0b4" x="215.10384" y="84.330468" style="fill: #eda100; stroke: #fcfcfb; stroke-width: 2"/>
    </g>
   </g>
   <g id="patch_3">
    <path d="M 40.786484 194.72 
L 40.786484 39.488 
" style="fill: none; stroke: #52514e; stroke-width: 0.8; stroke-linejoin: miter; stroke-linecap: square"/>
   </g>
   <g id="patch_4">
    <path d="M 40.786484 194.72 
L 223.404666 194.72 
" style="fill: none; stroke: #52514e; stroke-width: 0.8; stroke-linejoin: miter; stroke-linecap: square"/>
   </g>
  </g>
  <g id="axes_2">
   <g id="patch_5">
    <path d="M 259.928303 194.72 
L 442.546484 194.72 
L 442.546484 39.488 
L 259.928303 39.488 
z
" style="fill: #fcfcfb"/>
   </g>
   <g id="matplotlib.axis_3">
    <g id="xtick_5">
     <g id="line2d_51">
      <g>
       <use xlink:href="#md500cd0beb" x="282.06384" y="194.72" style="fill: #52514e; stroke: #52514e; stroke-width: 0.8"/>
      </g>
     </g>
     <g id="text_13">
      <!-- Gemini -->
      <g style="fill: #52514e" transform="translate(268.737863 208.169561) scale(0.075 -0.075)">
       <use xlink:href="#DejaVuSans-2a"/>
       <use xlink:href="#DejaVuSans-48" transform="translate(77.484375 0)"/>
       <use xlink:href="#DejaVuSans-50" transform="translate(139.015625 0)"/>
       <use xlink:href="#DejaVuSans-4c" transform="translate(236.421875 0)"/>
       <use xlink:href="#DejaVuSans-51" transform="translate(264.203125 0)"/>
       <use xlink:href="#DejaVuSans-4c" transform="translate(327.578125 0)"/>
      </g>
      <!-- ambig. -->
      <g style="fill: #52514e" transform="translate(269.118137 217.171611) scale(0.075 -0.075)">
       <use xlink:href="#DejaVuSans-44"/>
       <use xlink:href="#DejaVuSans-50" transform="translate(61.28125 0)"/>
       <use xlink:href="#DejaVuSans-45" transform="translate(158.6875 0)"/>
       <use xlink:href="#DejaVuSans-4c" transform="translate(222.171875 0)"/>
       <use xlink:href="#DejaVuSans-4a" transform="translate(249.953125 0)"/>
       <use xlink:href="#DejaVuSans-11" transform="translate(313.4375 0)"/>
      </g>
     </g>
    </g>
    <g id="xtick_6">
     <g id="line2d_52">
      <g>
       <use xlink:href="#md500cd0beb" x="328.179542" y="194.72" style="fill: #52514e; stroke: #52514e; stroke-width: 0.8"/>
      </g>
     </g>
     <g id="text_14">
      <!-- Gemini -->
      <g style="fill: #52514e" transform="translate(314.853566 208.169561) scale(0.075 -0.075)">
       <use xlink:href="#DejaVuSans-2a"/>
       <use xlink:href="#DejaVuSans-48" transform="translate(77.484375 0)"/>
       <use xlink:href="#DejaVuSans-50" transform="translate(139.015625 0)"/>
       <use xlink:href="#DejaVuSans-4c" transform="translate(236.421875 0)"/>
       <use xlink:href="#DejaVuSans-51" transform="translate(264.203125 0)"/>
       <use xlink:href="#DejaVuSans-4c" transform="translate(327.578125 0)"/>
      </g>
      <!-- explicit -->
      <g style="fill: #52514e" transform="translate(314.680128 217.171611) scale(0.075 -0.075)">
       <use xlink:href="#DejaVuSans-48"/>
       <use xlink:href="#DejaVuSans-5b" transform="translate(59.78125 0)"/>
       <use xlink:href="#DejaVuSans-53" transform="translate(118.96875 0)"/>
       <use xlink:href="#DejaVuSans-4f" transform="translate(182.453125 0)"/>
       <use xlink:href="#DejaVuSans-4c" transform="translate(210.234375 0)"/>
       <use xlink:href="#DejaVuSans-46" transform="translate(238.015625 0)"/>
       <use xlink:href="#DejaVuSans-4c" transform="translate(293 0)"/>
       <use xlink:href="#DejaVuSans-57" transform="translate(320.78125 0)"/>
      </g>
     </g>
    </g>
    <g id="xtick_7">
     <g id="line2d_53">
      <g>
       <use xlink:href="#md500cd0beb" x="374.295245" y="194.72" style="fill: #52514e; stroke: #52514e; stroke-width: 0.8"/>
      </g>
     </g>
     <g id="text_15">
      <!-- Ministral -->
      <g style="fill: #52514e" transform="translate(358.294463 208.169561) scale(0.075 -0.075)">
       <use xlink:href="#DejaVuSans-30"/>
       <use xlink:href="#DejaVuSans-4c" transform="translate(86.28125 0)"/>
       <use xlink:href="#DejaVuSans-51" transform="translate(114.0625 0)"/>
       <use xlink:href="#DejaVuSans-4c" transform="translate(177.4375 0)"/>
       <use xlink:href="#DejaVuSans-56" transform="translate(205.21875 0)"/>
       <use xlink:href="#DejaVuSans-57" transform="translate(257.3125 0)"/>
       <use xlink:href="#DejaVuSans-55" transform="translate(296.515625 0)"/>
       <use xlink:href="#DejaVuSans-44" transform="translate(337.625 0)"/>
       <use xlink:href="#DejaVuSans-4f" transform="translate(398.90625 0)"/>
      </g>
      <!-- ambig. -->
      <g style="fill: #52514e" transform="translate(361.349542 217.171611) scale(0.075 -0.075)">
       <use xlink:href="#DejaVuSans-44"/>
       <use xlink:href="#DejaVuSans-50" transform="translate(61.28125 0)"/>
       <use xlink:href="#DejaVuSans-45" transform="translate(158.6875 0)"/>
       <use xlink:href="#DejaVuSans-4c" transform="translate(222.171875 0)"/>
       <use xlink:href="#DejaVuSans-4a" transform="translate(249.953125 0)"/>
       <use xlink:href="#DejaVuSans-11" transform="translate(313.4375 0)"/>
      </g>
     </g>
    </g>
    <g id="xtick_8">
     <g id="line2d_54">
      <g>
       <use xlink:href="#md500cd0beb" x="420.410947" y="194.72" style="fill: #52514e; stroke: #52514e; stroke-width: 0.8"/>
      </g>
     </g>
     <g id="text_16">
      <!-- Ministral -->
      <g style="fill: #52514e" transform="translate(404.410166 208.169561) scale(0.075 -0.075)">
       <use xlink:href="#DejaVuSans-30"/>
       <use xlink:href="#DejaVuSans-4c" transform="translate(86.28125 0)"/>
       <use xlink:href="#DejaVuSans-51" transform="translate(114.0625 0)"/>
       <use xlink:href="#DejaVuSans-4c" transform="translate(177.4375 0)"/>
       <use xlink:href="#DejaVuSans-56" transform="translate(205.21875 0)"/>
       <use xlink:href="#DejaVuSans-57" transform="translate(257.3125 0)"/>
       <use xlink:href="#DejaVuSans-55" transform="translate(296.515625 0)"/>
       <use xlink:href="#DejaVuSans-44" transform="translate(337.625 0)"/>
       <use xlink:href="#DejaVuSans-4f" transform="translate(398.90625 0)"/>
      </g>
      <!-- explicit -->
      <g style="fill: #52514e" transform="translate(406.911533 217.171611) scale(0.075 -0.075)">
       <use xlink:href="#DejaVuSans-48"/>
       <use xlink:href="#DejaVuSans-5b" transform="translate(59.78125 0)"/>
       <use xlink:href="#DejaVuSans-53" transform="translate(118.96875 0)"/>
       <use xlink:href="#DejaVuSans-4f" transform="translate(182.453125 0)"/>
       <use xlink:href="#DejaVuSans-4c" transform="translate(210.234375 0)"/>
       <use xlink:href="#DejaVuSans-46" transform="translate(238.015625 0)"/>
       <use xlink:href="#DejaVuSans-4c" transform="translate(293 0)"/>
       <use xlink:href="#DejaVuSans-57" transform="translate(320.78125 0)"/>
      </g>
     </g>
    </g>
   </g>
   <g id="matplotlib.axis_4">
    <g id="ytick_8">
     <g id="line2d_55">
      <path d="M 259.928303 192.548205 
L 442.546484 192.548205 
" clip-path="url(#p874c33c79d)" style="fill: none; stroke: #e4e3df; stroke-width: 0.6; stroke-linecap: square"/>
     </g>
     <g id="line2d_56">
      <g>
       <use xlink:href="#m0a0f951ee2" x="259.928303" y="192.548205" style="fill: #52514e; stroke: #52514e; stroke-width: 0.8"/>
      </g>
     </g>
     <g id="text_17">
      <!-- 0.01 -->
      <g style="fill: #52514e" transform="translate(237.342365 195.207384) scale(0.07 -0.07)">
       <defs>
        <path id="DejaVuSans-14" d="M 794 531 
L 1825 531 
L 1825 4091 
L 703 3866 
L 703 4441 
L 1819 4666 
L 2450 4666 
L 2450 531 
L 3481 531 
L 3481 0 
L 794 0 
L 794 531 
z
" transform="scale(0.015625)"/>
       </defs>
       <use xlink:href="#DejaVuSans-13"/>
       <use xlink:href="#DejaVuSans-11" transform="translate(63.625 0)"/>
       <use xlink:href="#DejaVuSans-13" transform="translate(95.40625 0)"/>
       <use xlink:href="#DejaVuSans-14" transform="translate(159.03125 0)"/>
      </g>
     </g>
    </g>
    <g id="ytick_9">
     <g id="line2d_57">
      <path d="M 259.928303 168.328269 
L 442.546484 168.328269 
" clip-path="url(#p874c33c79d)" style="fill: none; stroke: #e4e3df; stroke-width: 0.6; stroke-linecap: square"/>
     </g>
     <g id="line2d_58">
      <g>
       <use xlink:href="#m0a0f951ee2" x="259.928303" y="168.328269" style="fill: #52514e; stroke: #52514e; stroke-width: 0.8"/>
      </g>
     </g>
     <g id="text_18">
      <!-- 0.02 -->
      <g style="fill: #52514e" transform="translate(237.342365 170.987449) scale(0.07 -0.07)">
       <defs>
        <path id="DejaVuSans-15" d="M 1228 531 
L 3431 531 
L 3431 0 
L 469 0 
L 469 531 
Q 828 903 1448 1529 
Q 2069 2156 2228 2338 
Q 2531 2678 2651 2914 
Q 2772 3150 2772 3378 
Q 2772 3750 2511 3984 
Q 2250 4219 1831 4219 
Q 1534 4219 1204 4116 
Q 875 4013 500 3803 
L 500 4441 
Q 881 4594 1212 4672 
Q 1544 4750 1819 4750 
Q 2544 4750 2975 4387 
Q 3406 4025 3406 3419 
Q 3406 3131 3298 2873 
Q 3191 2616 2906 2266 
Q 2828 2175 2409 1742 
Q 1991 1309 1228 531 
z
" transform="scale(0.015625)"/>
       </defs>
       <use xlink:href="#DejaVuSans-13"/>
       <use xlink:href="#DejaVuSans-11" transform="translate(63.625 0)"/>
       <use xlink:href="#DejaVuSans-13" transform="translate(95.40625 0)"/>
       <use xlink:href="#DejaVuSans-15" transform="translate(159.03125 0)"/>
      </g>
     </g>
    </g>
    <g id="ytick_10">
     <g id="line2d_59">
      <path d="M 259.928303 144.108334 
L 442.546484 144.108334 
" clip-path="url(#p874c33c79d)" style="fill: none; stroke: #e4e3df; stroke-width: 0.6; stroke-linecap: square"/>
     </g>
     <g id="line2d_60">
      <g>
       <use xlink:href="#m0a0f951ee2" x="259.928303" y="144.108334" style="fill: #52514e; stroke: #52514e; stroke-width: 0.8"/>
      </g>
     </g>
     <g id="text_19">
      <!-- 0.03 -->
      <g style="fill: #52514e" transform="translate(237.342365 146.767514) scale(0.07 -0.07)">
       <defs>
        <path id="DejaVuSans-16" d="M 2597 2516 
Q 3050 2419 3304 2112 
Q 3559 1806 3559 1356 
Q 3559 666 3084 287 
Q 2609 -91 1734 -91 
Q 1441 -91 1130 -33 
Q 819 25 488 141 
L 488 750 
Q 750 597 1062 519 
Q 1375 441 1716 441 
Q 2309 441 2620 675 
Q 2931 909 2931 1356 
Q 2931 1769 2642 2001 
Q 2353 2234 1838 2234 
L 1294 2234 
L 1294 2753 
L 1863 2753 
Q 2328 2753 2575 2939 
Q 2822 3125 2822 3475 
Q 2822 3834 2567 4026 
Q 2313 4219 1838 4219 
Q 1578 4219 1281 4162 
Q 984 4106 628 3988 
L 628 4550 
Q 988 4650 1302 4700 
Q 1616 4750 1894 4750 
Q 2613 4750 3031 4423 
Q 3450 4097 3450 3541 
Q 3450 3153 3228 2886 
Q 3006 2619 2597 2516 
z
" transform="scale(0.015625)"/>
       </defs>
       <use xlink:href="#DejaVuSans-13"/>
       <use xlink:href="#DejaVuSans-11" transform="translate(63.625 0)"/>
       <use xlink:href="#DejaVuSans-13" transform="translate(95.40625 0)"/>
       <use xlink:href="#DejaVuSans-16" transform="translate(159.03125 0)"/>
      </g>
     </g>
    </g>
    <g id="ytick_11">
     <g id="line2d_61">
      <path d="M 259.928303 119.888399 
L 442.546484 119.888399 
" clip-path="url(#p874c33c79d)" style="fill: none; stroke: #e4e3df; stroke-width: 0.6; stroke-linecap: square"/>
     </g>
     <g id="line2d_62">
      <g>
       <use xlink:href="#m0a0f951ee2" x="259.928303" y="119.888399" style="fill: #52514e; stroke: #52514e; stroke-width: 0.8"/>
      </g>
     </g>
     <g id="text_20">
      <!-- 0.04 -->
      <g style="fill: #52514e" transform="translate(237.342365 122.547579) scale(0.07 -0.07)">
       <use xlink:href="#DejaVuSans-13"/>
       <use xlink:href="#DejaVuSans-11" transform="translate(63.625 0)"/>
       <use xlink:href="#DejaVuSans-13" transform="translate(95.40625 0)"/>
       <use xlink:href="#DejaVuSans-17" transform="translate(159.03125 0)"/>
      </g>
     </g>
    </g>
    <g id="ytick_12">
     <g id="line2d_63">
      <path d="M 259.928303 95.668464 
L 442.546484 95.668464 
" clip-path="url(#p874c33c79d)" style="fill: none; stroke: #e4e3df; stroke-width: 0.6; stroke-linecap: square"/>
     </g>
     <g id="line2d_64">
      <g>
       <use xlink:href="#m0a0f951ee2" x="259.928303" y="95.668464" style="fill: #52514e; stroke: #52514e; stroke-width: 0.8"/>
      </g>
     </g>
     <g id="text_21">
      <!-- 0.05 -->
      <g style="fill: #52514e" transform="translate(237.342365 98.327643) scale(0.07 -0.07)">
       <use xlink:href="#DejaVuSans-13"/>
       <use xlink:href="#DejaVuSans-11" transform="translate(63.625 0)"/>
       <use xlink:href="#DejaVuSans-13" transform="translate(95.40625 0)"/>
       <use xlink:href="#DejaVuSans-18" transform="translate(159.03125 0)"/>
      </g>
     </g>
    </g>
    <g id="ytick_13">
     <g id="line2d_65">
      <path d="M 259.928303 71.448528 
L 442.546484 71.448528 
" clip-path="url(#p874c33c79d)" style="fill: none; stroke: #e4e3df; stroke-width: 0.6; stroke-linecap: square"/>
     </g>
     <g id="line2d_66">
      <g>
       <use xlink:href="#m0a0f951ee2" x="259.928303" y="71.448528" style="fill: #52514e; stroke: #52514e; stroke-width: 0.8"/>
      </g>
     </g>
     <g id="text_22">
      <!-- 0.06 -->
      <g style="fill: #52514e" transform="translate(237.342365 74.107708) scale(0.07 -0.07)">
       <use xlink:href="#DejaVuSans-13"/>
       <use xlink:href="#DejaVuSans-11" transform="translate(63.625 0)"/>
       <use xlink:href="#DejaVuSans-13" transform="translate(95.40625 0)"/>
       <use xlink:href="#DejaVuSans-19" transform="translate(159.03125 0)"/>
      </g>
     </g>
    </g>
    <g id="ytick_14">
     <g id="line2d_67">
      <path d="M 259.928303 47.228593 
L 442.546484 47.228593 
" clip-path="url(#p874c33c79d)" style="fill: none; stroke: #e4e3df; stroke-width: 0.6; stroke-linecap: square"/>
     </g>
     <g id="line2d_68">
      <g>
       <use xlink:href="#m0a0f951ee2" x="259.928303" y="47.228593" style="fill: #52514e; stroke: #52514e; stroke-width: 0.8"/>
      </g>
     </g>
     <g id="text_23">
      <!-- 0.07 -->
      <g style="fill: #52514e" transform="translate(237.342365 49.887773) scale(0.07 -0.07)">
       <use xlink:href="#DejaVuSans-13"/>
       <use xlink:href="#DejaVuSans-11" transform="translate(63.625 0)"/>
       <use xlink:href="#DejaVuSans-13" transform="translate(95.40625 0)"/>
       <use xlink:href="#DejaVuSans-1a" transform="translate(159.03125 0)"/>
      </g>
     </g>
    </g>
    <g id="text_24">
     <!-- Regret -->
     <g style="fill: #0b0b0b" transform="translate(231.660724 128.641969) rotate(-90) scale(0.07 -0.07)">
      <use xlink:href="#DejaVuSans-35"/>
      <use xlink:href="#DejaVuSans-48" transform="translate(65 0)"/>
      <use xlink:href="#DejaVuSans-4a" transform="translate(126.53125 0)"/>
      <use xlink:href="#DejaVuSans-55" transform="translate(190.015625 0)"/>
      <use xlink:href="#DejaVuSans-48" transform="translate(228.921875 0)"/>
      <use xlink:href="#DejaVuSans-57" transform="translate(290.453125 0)"/>
     </g>
    </g>
   </g>
   <g id="line2d_69">
    <path d="M 268.229129 159.344005 
L 268.229129 114.284797 
" clip-path="url(#p874c33c79d)" style="fill: none; stroke: #2a78d6; stroke-width: 2; stroke-linecap: square"/>
   </g>
   <g id="line2d_70">
    <g clip-path="url(#p874c33c79d)">
     <use xlink:href="#m656ee0d453" x="268.229129" y="137.604863" style="fill: #2a78d6; stroke: #fcfcfb; stroke-width: 2"/>
    </g>
   </g>
   <g id="line2d_71">
    <path d="M 277.452269 156.017227 
L 277.452269 111.725063 
" clip-path="url(#p874c33c79d)" style="fill: none; stroke: #eb6834; stroke-width: 2; stroke-linecap: square"/>
   </g>
   <g id="line2d_72">
    <g clip-path="url(#p874c33c79d)">
     <use xlink:href="#m28c51101f0" x="277.452269" y="134.547383" style="fill: #eb6834; stroke: #fcfcfb; stroke-width: 2"/>
    </g>
   </g>
   <g id="line2d_73">
    <path d="M 286.67541 151.150701 
L 286.67541 104.792264 
" clip-path="url(#p874c33c79d)" style="fill: none; stroke: #1baf7a; stroke-width: 2; stroke-linecap: square"/>
   </g>
   <g id="line2d_74">
    <g clip-path="url(#p874c33c79d)">
     <use xlink:href="#mc7003303ea" x="286.67541" y="128.213585" style="fill: #1baf7a; stroke: #fcfcfb; stroke-width: 2"/>
    </g>
   </g>
   <g id="line2d_75">
    <path d="M 295.89855 158.490557 
L 295.89855 112.86985 
" clip-path="url(#p874c33c79d)" style="fill: none; stroke: #eda100; stroke-width: 2; stroke-linecap: square"/>
   </g>
   <g id="line2d_76">
    <g clip-path="url(#p874c33c79d)">
     <use xlink:href="#maeaf56d0b4" x="295.89855" y="136.400504" style="fill: #eda100; stroke: #fcfcfb; stroke-width: 2"/>
    </g>
   </g>
   <g id="line2d_77">
    <path d="M 314.344831 187.664 
L 314.344831 144.577304 
" clip-path="url(#p874c33c79d)" style="fill: none; stroke: #2a78d6; stroke-width: 2; stroke-linecap: square"/>
   </g>
   <g id="line2d_78">
    <g clip-path="url(#p874c33c79d)">
     <use xlink:href="#m656ee0d453" x="314.344831" y="166.962033" style="fill: #2a78d6; stroke: #fcfcfb; stroke-width: 2"/>
    </g>
   </g>
   <g id="line2d_79">
    <path d="M 323.567972 186.432638 
L 323.567972 142.354973 
" clip-path="url(#p874c33c79d)" style="fill: none; stroke: #eb6834; stroke-width: 2; stroke-linecap: square"/>
   </g>
   <g id="line2d_80">
    <g clip-path="url(#p874c33c79d)">
     <use xlink:href="#m28c51101f0" x="323.567972" y="165.478471" style="fill: #eb6834; stroke: #fcfcfb; stroke-width: 2"/>
    </g>
   </g>
   <g id="line2d_81">
    <path d="M 332.791112 171.235949 
L 332.791112 121.944946 
" clip-path="url(#p874c33c79d)" style="fill: none; stroke: #1baf7a; stroke-width: 2; stroke-linecap: square"/>
   </g>
   <g id="line2d_82">
    <g clip-path="url(#p874c33c79d)">
     <use xlink:href="#mc7003303ea" x="332.791112" y="148.179476" style="fill: #1baf7a; stroke: #fcfcfb; stroke-width: 2"/>
    </g>
   </g>
   <g id="line2d_83">
    <path d="M 342.014253 184.340492 
L 342.014253 135.378202 
" clip-path="url(#p874c33c79d)" style="fill: none; stroke: #eda100; stroke-width: 2; stroke-linecap: square"/>
   </g>
   <g id="line2d_84">
    <g clip-path="url(#p874c33c79d)">
     <use xlink:href="#maeaf56d0b4" x="342.014253" y="161.10975" style="fill: #eda100; stroke: #fcfcfb; stroke-width: 2"/>
    </g>
   </g>
   <g id="line2d_85">
    <path d="M 360.460534 157.905541 
L 360.460534 85.897554 
" clip-path="url(#p874c33c79d)" style="fill: none; stroke: #2a78d6; stroke-width: 2; stroke-linecap: square"/>
   </g>
   <g id="line2d_86">
    <g clip-path="url(#p874c33c79d)">
     <use xlink:href="#m656ee0d453" x="360.460534" y="123.795324" style="fill: #2a78d6; stroke: #fcfcfb; stroke-width: 2"/>
    </g>
   </g>
   <g id="line2d_87">
    <path d="M 369.683674 137.013114 
L 369.683674 69.456923 
" clip-path="url(#p874c33c79d)" style="fill: none; stroke: #eb6834; stroke-width: 2; stroke-linecap: square"/>
   </g>
   <g id="line2d_88">
    <g clip-path="url(#p874c33c79d)">
     <use xlink:href="#m28c51101f0" x="369.683674" y="104.242012" style="fill: #eb6834; stroke: #fcfcfb; stroke-width: 2"/>
    </g>
   </g>
   <g id="line2d_89">
    <path d="M 378.906815 130.869284 
L 378.906815 75.252074 
" clip-path="url(#p874c33c79d)" style="fill: none; stroke: #1baf7a; stroke-width: 2; stroke-linecap: square"/>
   </g>
   <g id="line2d_90">
    <g clip-path="url(#p874c33c79d)">
     <use xlink:href="#mc7003303ea" x="378.906815" y="103.960715" style="fill: #1baf7a; stroke: #fcfcfb; stroke-width: 2"/>
    </g>
   </g>
   <g id="line2d_91">
    <path d="M 388.129955 122.241257 
L 388.129955 46.544 
" clip-path="url(#p874c33c79d)" style="fill: none; stroke: #eda100; stroke-width: 2; stroke-linecap: square"/>
   </g>
   <g id="line2d_92">
    <g clip-path="url(#p874c33c79d)">
     <use xlink:href="#maeaf56d0b4" x="388.129955" y="85.471293" style="fill: #eda100; stroke: #fcfcfb; stroke-width: 2"/>
    </g>
   </g>
   <g id="line2d_93">
    <path d="M 406.576236 145.027346 
L 406.576236 95.638819 
" clip-path="url(#p874c33c79d)" style="fill: none; stroke: #2a78d6; stroke-width: 2; stroke-linecap: square"/>
   </g>
   <g id="line2d_94">
    <g clip-path="url(#p874c33c79d)">
     <use xlink:href="#m656ee0d453" x="406.576236" y="121.195917" style="fill: #2a78d6; stroke: #fcfcfb; stroke-width: 2"/>
    </g>
   </g>
   <g id="line2d_95">
    <path d="M 415.799377 170.32422 
L 415.799377 127.892486 
" clip-path="url(#p874c33c79d)" style="fill: none; stroke: #eb6834; stroke-width: 2; stroke-linecap: square"/>
   </g>
   <g id="line2d_96">
    <g clip-path="url(#p874c33c79d)">
     <use xlink:href="#m28c51101f0" x="415.799377" y="149.996227" style="fill: #eb6834; stroke: #fcfcfb; stroke-width: 2"/>
    </g>
   </g>
   <g id="line2d_97">
    <path d="M 425.022517 177.887848 
L 425.022517 132.761327 
" clip-path="url(#p874c33c79d)" style="fill: none; stroke: #1baf7a; stroke-width: 2; stroke-linecap: square"/>
   </g>
   <g id="line2d_98">
    <g clip-path="url(#p874c33c79d)">
     <use xlink:href="#mc7003303ea" x="425.022517" y="156.365609" style="fill: #1baf7a; stroke: #fcfcfb; stroke-width: 2"/>
    </g>
   </g>
   <g id="line2d_99">
    <path d="M 434.245658 170.931603 
L 434.245658 124.957977 
" clip-path="url(#p874c33c79d)" style="fill: none; stroke: #eda100; stroke-width: 2; stroke-linecap: square"/>
   </g>
   <g id="line2d_100">
    <g clip-path="url(#p874c33c79d)">
     <use xlink:href="#maeaf56d0b4" x="434.245658" y="149.005341" style="fill: #eda100; stroke: #fcfcfb; stroke-width: 2"/>
    </g>
   </g>
   <g id="patch_6">
    <path d="M 259.928303 194.72 
L 259.928303 39.488 
" style="fill: none; stroke: #52514e; stroke-width: 0.8; stroke-linejoin: miter; stroke-linecap: square"/>
   </g>
   <g id="patch_7">
    <path d="M 259.928303 194.72 
L 442.546484 194.72 
" style="fill: none; stroke: #52514e; stroke-width: 0.8; stroke-linejoin: miter; stroke-linecap: square"/>
   </g>
  </g>
  <g id="legend_1">
   <g id="line2d_101">
    <defs>
     <path id="m04b612c811" d="M 0 3.5 
C 0.928211 3.5 1.81853 3.131218 2.474874 2.474874 
C 3.131218 1.81853 3.5 0.928211 3.5 0 
C 3.5 -0.928211 3.131218 -1.81853 2.474874 -2.474874 
C 1.81853 -3.131218 0.928211 -3.5 0 -3.5 
C -0.928211 -3.5 -1.81853 -3.131218 -2.474874 -2.474874 
C -3.131218 -1.81853 -3.5 -0.928211 -3.5 0 
C -3.5 0.928211 -3.131218 1.81853 -2.474874 2.474874 
C -1.81853 3.131218 -0.928211 3.5 0 3.5 
z
" style="stroke: #2a78d6"/>
    </defs>
    <g>
     <use xlink:href="#m04b612c811" x="102.540234" y="13.67875" style="fill: #2a78d6; stroke: #2a78d6"/>
    </g>
   </g>
   <g id="text_25">
    <!-- Neutral -->
    <g transform="translate(116.940234 16.47875) scale(0.08 -0.08)">
     <defs>
      <path id="DejaVuSans-31" d="M 628 4666 
L 1478 4666 
L 3547 763 
L 3547 4666 
L 4159 4666 
L 4159 0 
L 3309 0 
L 1241 3903 
L 1241 0 
L 628 0 
L 628 4666 
z
" transform="scale(0.015625)"/>
     </defs>
     <use xlink:href="#DejaVuSans-31"/>
     <use xlink:href="#DejaVuSans-48" transform="translate(74.8125 0)"/>
     <use xlink:href="#DejaVuSans-58" transform="translate(136.34375 0)"/>
     <use xlink:href="#DejaVuSans-57" transform="translate(199.71875 0)"/>
     <use xlink:href="#DejaVuSans-55" transform="translate(238.921875 0)"/>
     <use xlink:href="#DejaVuSans-44" transform="translate(280.03125 0)"/>
     <use xlink:href="#DejaVuSans-4f" transform="translate(341.3125 0)"/>
    </g>
   </g>
   <g id="line2d_102">
    <defs>
     <path id="mc24622a50c" d="M 0 3.5 
C 0.928211 3.5 1.81853 3.131218 2.474874 2.474874 
C 3.131218 1.81853 3.5 0.928211 3.5 0 
C 3.5 -0.928211 3.131218 -1.81853 2.474874 -2.474874 
C 1.81853 -3.131218 0.928211 -3.5 0 -3.5 
C -0.928211 -3.5 -1.81853 -3.131218 -2.474874 -2.474874 
C -3.131218 -1.81853 -3.5 -0.928211 -3.5 0 
C -3.5 0.928211 -3.131218 1.81853 -2.474874 2.474874 
C -1.81853 3.131218 -0.928211 3.5 0 3.5 
z
" style="stroke: #eb6834"/>
    </defs>
    <g>
     <use xlink:href="#mc24622a50c" x="170.467734" y="13.67875" style="fill: #eb6834; stroke: #eb6834"/>
    </g>
   </g>
   <g id="text_26">
    <!-- Scarcity -->
    <g transform="translate(184.867734 16.47875) scale(0.08 -0.08)">
     <defs>
      <path id="DejaVuSans-36" d="M 3425 4513 
L 3425 3897 
Q 3066 4069 2747 4153 
Q 2428 4238 2131 4238 
Q 1616 4238 1336 4038 
Q 1056 3838 1056 3469 
Q 1056 3159 1242 3001 
Q 1428 2844 1947 2747 
L 2328 2669 
Q 3034 2534 3370 2195 
Q 3706 1856 3706 1288 
Q 3706 609 3251 259 
Q 2797 -91 1919 -91 
Q 1588 -91 1214 -16 
Q 841 59 441 206 
L 441 856 
Q 825 641 1194 531 
Q 1563 422 1919 422 
Q 2459 422 2753 634 
Q 3047 847 3047 1241 
Q 3047 1584 2836 1778 
Q 2625 1972 2144 2069 
L 1759 2144 
Q 1053 2284 737 2584 
Q 422 2884 422 3419 
Q 422 4038 858 4394 
Q 1294 4750 2059 4750 
Q 2388 4750 2728 4690 
Q 3069 4631 3425 4513 
z
" transform="scale(0.015625)"/>
     </defs>
     <use xlink:href="#DejaVuSans-36"/>
     <use xlink:href="#DejaVuSans-46" transform="translate(63.484375 0)"/>
     <use xlink:href="#DejaVuSans-44" transform="translate(118.46875 0)"/>
     <use xlink:href="#DejaVuSans-55" transform="translate(179.75 0)"/>
     <use xlink:href="#DejaVuSans-46" transform="translate(218.65625 0)"/>
     <use xlink:href="#DejaVuSans-4c" transform="translate(273.640625 0)"/>
     <use xlink:href="#DejaVuSans-57" transform="translate(301.421875 0)"/>
     <use xlink:href="#DejaVuSans-5c" transform="translate(340.625 0)"/>
    </g>
   </g>
   <g id="line2d_103">
    <defs>
     <path id="m6b47ed8c7e" d="M 0 3.5 
C 0.928211 3.5 1.81853 3.131218 2.474874 2.474874 
C 3.131218 1.81853 3.5 0.928211 3.5 0 
C 3.5 -0.928211 3.131218 -1.81853 2.474874 -2.474874 
C 1.81853 -3.131218 0.928211 -3.5 0 -3.5 
C -0.928211 -3.5 -1.81853 -3.131218 -2.474874 -2.474874 
C -3.131218 -1.81853 -3.5 -0.928211 -3.5 0 
C -3.5 0.928211 -3.131218 1.81853 -2.474874 2.474874 
C -1.81853 3.131218 -0.928211 3.5 0 3.5 
z
" style="stroke: #1baf7a"/>
    </defs>
    <g>
     <use xlink:href="#m6b47ed8c7e" x="240.852734" y="13.67875" style="fill: #1baf7a; stroke: #1baf7a"/>
    </g>
   </g>
   <g id="text_27">
    <!-- Social proof -->
    <g transform="translate(255.252734 16.47875) scale(0.08 -0.08)">
     <defs>
      <path id="DejaVuSans-49" d="M 2375 4863 
L 2375 4384 
L 1825 4384 
Q 1516 4384 1395 4259 
Q 1275 4134 1275 3809 
L 1275 3500 
L 2222 3500 
L 2222 3053 
L 1275 3053 
L 1275 0 
L 697 0 
L 697 3053 
L 147 3053 
L 147 3500 
L 697 3500 
L 697 3744 
Q 697 4328 969 4595 
Q 1241 4863 1831 4863 
L 2375 4863 
z
" transform="scale(0.015625)"/>
     </defs>
     <use xlink:href="#DejaVuSans-36"/>
     <use xlink:href="#DejaVuSans-52" transform="translate(63.484375 0)"/>
     <use xlink:href="#DejaVuSans-46" transform="translate(124.671875 0)"/>
     <use xlink:href="#DejaVuSans-4c" transform="translate(179.65625 0)"/>
     <use xlink:href="#DejaVuSans-44" transform="translate(207.4375 0)"/>
     <use xlink:href="#DejaVuSans-4f" transform="translate(268.71875 0)"/>
     <use xlink:href="#DejaVuSans-3" transform="translate(296.5 0)"/>
     <use xlink:href="#DejaVuSans-53" transform="translate(328.28125 0)"/>
     <use xlink:href="#DejaVuSans-55" transform="translate(391.765625 0)"/>
     <use xlink:href="#DejaVuSans-52" transform="translate(430.671875 0)"/>
     <use xlink:href="#DejaVuSans-52" transform="translate(491.859375 0)"/>
     <use xlink:href="#DejaVuSans-49" transform="translate(553.046875 0)"/>
    </g>
   </g>
   <g id="line2d_104">
    <defs>
     <path id="mbe4deafb68" d="M 0 3.5 
C 0.928211 3.5 1.81853 3.131218 2.474874 2.474874 
C 3.131218 1.81853 3.5 0.928211 3.5 0 
C 3.5 -0.928211 3.131218 -1.81853 2.474874 -2.474874 
C 1.81853 -3.131218 0.928211 -3.5 0 -3.5 
C -0.928211 -3.5 -1.81853 -3.131218 -2.474874 -2.474874 
C -3.131218 -1.81853 -3.5 -0.928211 -3.5 0 
C -3.5 0.928211 -3.131218 1.81853 -2.474874 2.474874 
C -1.81853 3.131218 -0.928211 3.5 0 3.5 
z
" style="stroke: #eda100"/>
    </defs>
    <g>
     <use xlink:href="#mbe4deafb68" x="326.312734" y="13.67875" style="fill: #eda100; stroke: #eda100"/>
    </g>
   </g>
   <g id="text_28">
    <!-- Discount -->
    <g transform="translate(340.712734 16.47875) scale(0.08 -0.08)">
     <defs>
      <path id="DejaVuSans-27" d="M 1259 4147 
L 1259 519 
L 2022 519 
Q 2988 519 3436 956 
Q 3884 1394 3884 2338 
Q 3884 3275 3436 3711 
Q 2988 4147 2022 4147 
L 1259 4147 
z
M 628 4666 
L 1925 4666 
Q 3281 4666 3915 4102 
Q 4550 3538 4550 2338 
Q 4550 1131 3912 565 
Q 3275 0 1925 0 
L 628 0 
L 628 4666 
z
" transform="scale(0.015625)"/>
     </defs>
     <use xlink:href="#DejaVuSans-27"/>
     <use xlink:href="#DejaVuSans-4c" transform="translate(77 0)"/>
     <use xlink:href="#DejaVuSans-56" transform="translate(104.78125 0)"/>
     <use xlink:href="#DejaVuSans-46" transform="translate(156.875 0)"/>
     <use xlink:href="#DejaVuSans-52" transform="translate(211.859375 0)"/>
     <use xlink:href="#DejaVuSans-58" transform="translate(273.046875 0)"/>
     <use xlink:href="#DejaVuSans-51" transform="translate(336.421875 0)"/>
     <use xlink:href="#DejaVuSans-57" transform="translate(399.796875 0)"/>
    </g>
   </g>
  </g>
 </g>
 <defs>
  <clipPath id="pe866e5e3ad">
   <rect x="40.786484" y="39.488" width="182.618182" height="155.232"/>
  </clipPath>
  <clipPath id="p874c33c79d">
   <rect x="259.928303" y="39.488" width="182.618182" height="155.232"/>
  </clipPath>
 </defs>
</svg>
